# xmcd
#
# Track frame offsets:
#	150
#	17490
#	35953
#	50770
#	67374
#	82570
#	100219
#	119172
#	137169
#	154473
#	172932
#	187727
#	204319
#	219526
#	237206
#	256149
#	285572
#
# Disc length: 3820 seconds
#
# Revision: 1
# Processed by: cddbd v1.5.2PL0 Copyright (c) Steve Scherf et al.
# Submitted via: audiograbber 1.83.01
#
DISCID=f40eea11
DTITLE=POWER PICKS V-167 - SOUND CHOICE
DYEAR=1900
DGENRE=
TTITLE0=KENNY CHESNEY - NO SHOES, NO SHIRT, NO PROBLEM
TTITLE1=WYNONNA - WHAT THE WORLD NEEDS
TTITLE2=RACHEL PROCTOR - DAYS LIKE THIS
TTITLE3=DEANA CARTER - I'M JUST A GIRL
TTITLE4=KENNY ROGERS - I'M MISSING YOU
TTITLE5=CLAY WALKER - A FEW QUESTIONS
TTITLE6=DIERKS BENTLEY - WHAT WAS I THINKIN'
TTITLE7=BUDDY JEWELL - HELP POUR OUT THE RAIN (LACEY'S SONG)
TTITLE8=KENNY CHESNEY - V- NO SHIRT, NO SHOES
TTITLE9=WYNONNA - V- WHAT THE WORLD NEEDS
TTITLE10=RACHEL PROCTOR - V-DAYS LIKE THIS
TTITLE11=DEANNA CARTER - V-I'M JUST A GIRL
TTITLE12=KENNY ROGERS - V-I'M MISSING YOU
TTITLE13=CLAY WALKER - V-A FEW QUESTIONS
TTITLE14=DIERKS BENTLEY - V-WHAT WAS I THINKIN'
TTITLE15=BUDDY JEWELL - V-HELP POUR OUT THE RAIN
TTITLE16=DATA - Data Track
EXTD=
EXTT0=
EXTT1=
EXTT2=
EXTT3=
EXTT4=
EXTT5=
EXTT6=
EXTT7=
EXTT8=
EXTT9=
EXTT10=
EXTT11=
EXTT12=
EXTT13=
EXTT14=
EXTT15=
EXTT16=
PLAYORDER=
